<svg xmlns="http://www.w3.org/2000/svg" xmlns:xlink="http://www.w3.org/1999/xlink" width="500" zoomAndPan="magnify" viewBox="0 0 375 374.999991" height="500" preserveAspectRatio="xMidYMid meet" version="1.0"><defs><g/></defs><g fill="#000000" fill-opacity="1"><g transform="translate(77.615416, 180.105927)"><g><path d="M 23.609375 -9.90625 L 30.765625 -9.90625 C 30.109375 -7.90625 29.082031 -6.125 27.6875 -4.5625 C 26.289062 -3.007812 24.632812 -1.789062 22.71875 -0.90625 C 20.800781 -0.0195312 18.726562 0.421875 16.5 0.421875 C 14.445312 0.421875 12.507812 0.0351562 10.6875 -0.734375 C 8.875 -1.503906 7.273438 -2.582031 5.890625 -3.96875 C 4.503906 -5.351562 3.425781 -6.953125 2.65625 -8.765625 C 1.882812 -10.578125 1.5 -12.515625 1.5 -14.578125 C 1.5 -16.628906 1.882812 -18.5625 2.65625 -20.375 C 3.425781 -22.1875 4.503906 -23.785156 5.890625 -25.171875 C 7.273438 -26.566406 8.875 -27.648438 10.6875 -28.421875 C 12.507812 -29.191406 14.445312 -29.578125 16.5 -29.578125 C 18.726562 -29.578125 20.789062 -29.132812 22.6875 -28.25 C 24.59375 -27.363281 26.242188 -26.15625 27.640625 -24.625 C 29.046875 -23.09375 30.078125 -21.328125 30.734375 -19.328125 L 23.578125 -19.328125 C 22.972656 -20.640625 22.015625 -21.675781 20.703125 -22.4375 C 19.390625 -23.195312 17.988281 -23.578125 16.5 -23.578125 C 14.925781 -23.578125 13.492188 -23.164062 12.203125 -22.34375 C 10.921875 -21.53125 9.898438 -20.445312 9.140625 -19.09375 C 8.390625 -17.738281 8.015625 -16.234375 8.015625 -14.578125 C 8.015625 -12.921875 8.390625 -11.410156 9.140625 -10.046875 C 9.898438 -8.691406 10.921875 -7.609375 12.203125 -6.796875 C 13.492188 -5.984375 14.925781 -5.578125 16.5 -5.578125 C 18.007812 -5.578125 19.421875 -5.972656 20.734375 -6.765625 C 22.054688 -7.566406 23.015625 -8.613281 23.609375 -9.90625 Z M 23.609375 -9.90625 "/></g></g></g><g fill="#000000" fill-opacity="1"><g transform="translate(115.672211, 180.105927)"><g><path d="M 9 0 L 2.578125 0 L 2.578125 -29.140625 L 9 -29.140625 Z M 9 0 "/></g></g></g><g fill="#000000" fill-opacity="1"><g transform="translate(133.458386, 180.105927)"><g><path d="M 2.578125 0 L 2.578125 -29.140625 L 9 -29.140625 L 9 -5.828125 L 19.453125 -5.828125 L 19.453125 0 Z M 2.578125 0 "/></g></g></g><g fill="#000000" fill-opacity="1"><g transform="translate(160.629891, 180.105927)"><g><path d="M 23.609375 -9.90625 L 30.765625 -9.90625 C 30.109375 -7.90625 29.082031 -6.125 27.6875 -4.5625 C 26.289062 -3.007812 24.632812 -1.789062 22.71875 -0.90625 C 20.800781 -0.0195312 18.726562 0.421875 16.5 0.421875 C 14.445312 0.421875 12.507812 0.0351562 10.6875 -0.734375 C 8.875 -1.503906 7.273438 -2.582031 5.890625 -3.96875 C 4.503906 -5.351562 3.425781 -6.953125 2.65625 -8.765625 C 1.882812 -10.578125 1.5 -12.515625 1.5 -14.578125 C 1.5 -16.628906 1.882812 -18.5625 2.65625 -20.375 C 3.425781 -22.1875 4.503906 -23.785156 5.890625 -25.171875 C 7.273438 -26.566406 8.875 -27.648438 10.6875 -28.421875 C 12.507812 -29.191406 14.445312 -29.578125 16.5 -29.578125 C 18.726562 -29.578125 20.789062 -29.132812 22.6875 -28.25 C 24.59375 -27.363281 26.242188 -26.15625 27.640625 -24.625 C 29.046875 -23.09375 30.078125 -21.328125 30.734375 -19.328125 L 23.578125 -19.328125 C 22.972656 -20.640625 22.015625 -21.675781 20.703125 -22.4375 C 19.390625 -23.195312 17.988281 -23.578125 16.5 -23.578125 C 14.925781 -23.578125 13.492188 -23.164062 12.203125 -22.34375 C 10.921875 -21.53125 9.898438 -20.445312 9.140625 -19.09375 C 8.390625 -17.738281 8.015625 -16.234375 8.015625 -14.578125 C 8.015625 -12.921875 8.390625 -11.410156 9.140625 -10.046875 C 9.898438 -8.691406 10.921875 -7.609375 12.203125 -6.796875 C 13.492188 -5.984375 14.925781 -5.578125 16.5 -5.578125 C 18.007812 -5.578125 19.421875 -5.972656 20.734375 -6.765625 C 22.054688 -7.566406 23.015625 -8.613281 23.609375 -9.90625 Z M 23.609375 -9.90625 "/></g></g></g><g fill="#000000" fill-opacity="1"><g transform="translate(198.686689, 180.105927)"><g><path d="M 20.4375 0 L -0.640625 0 L 10.890625 -14.75 C 11.285156 -15.226562 11.710938 -15.753906 12.171875 -16.328125 C 12.628906 -16.898438 13.019531 -17.503906 13.34375 -18.140625 C 13.675781 -18.785156 13.84375 -19.4375 13.84375 -20.09375 C 13.84375 -21.15625 13.535156 -21.984375 12.921875 -22.578125 C 12.304688 -23.179688 11.515625 -23.484375 10.546875 -23.484375 C 9.484375 -23.484375 8.625 -23.140625 7.96875 -22.453125 C 7.3125 -21.765625 6.957031 -20.664062 6.90625 -19.15625 L 0.859375 -19.15625 C 0.910156 -21.039062 1.300781 -22.769531 2.03125 -24.34375 C 2.757812 -25.914062 3.832031 -27.179688 5.25 -28.140625 C 6.664062 -29.097656 8.414062 -29.578125 10.5 -29.578125 C 12.382812 -29.578125 14.039062 -29.179688 15.46875 -28.390625 C 16.894531 -27.609375 18 -26.503906 18.78125 -25.078125 C 19.570312 -23.648438 19.96875 -21.988281 19.96875 -20.09375 C 19.96875 -18.644531 19.703125 -17.328125 19.171875 -16.140625 C 18.648438 -14.953125 17.988281 -13.84375 17.1875 -12.8125 C 16.382812 -11.78125 15.554688 -10.738281 14.703125 -9.6875 L 11.609375 -5.828125 L 20.4375 -5.828125 Z M 20.4375 0 "/></g></g></g><g fill="#000000" fill-opacity="1"><g transform="translate(227.058159, 180.105927)"><g><path d="M 13.203125 -23.75 C 12.171875 -23.75 11.3125 -23.445312 10.625 -22.84375 C 9.9375 -22.238281 9.394531 -21.460938 9 -20.515625 C 8.601562 -19.578125 8.320312 -18.570312 8.15625 -17.5 C 8 -16.4375 7.921875 -15.445312 7.921875 -14.53125 C 7.921875 -13.53125 8 -12.492188 8.15625 -11.421875 C 8.320312 -10.347656 8.601562 -9.347656 9 -8.421875 C 9.394531 -7.492188 9.9375 -6.742188 10.625 -6.171875 C 11.3125 -5.597656 12.171875 -5.3125 13.203125 -5.3125 C 14.234375 -5.3125 15.082031 -5.597656 15.75 -6.171875 C 16.425781 -6.742188 16.960938 -7.492188 17.359375 -8.421875 C 17.753906 -9.347656 18.035156 -10.335938 18.203125 -11.390625 C 18.378906 -12.453125 18.46875 -13.46875 18.46875 -14.4375 C 18.46875 -15.382812 18.390625 -16.394531 18.234375 -17.46875 C 18.078125 -18.539062 17.804688 -19.550781 17.421875 -20.5 C 17.035156 -21.457031 16.5 -22.238281 15.8125 -22.84375 C 15.125 -23.445312 14.253906 -23.75 13.203125 -23.75 Z M 13.203125 0.515625 C 11.515625 0.515625 10.023438 0.191406 8.734375 -0.453125 C 7.453125 -1.097656 6.351562 -1.953125 5.4375 -3.015625 C 4.53125 -4.085938 3.78125 -5.28125 3.1875 -6.59375 C 2.601562 -7.914062 2.175781 -9.253906 1.90625 -10.609375 C 1.632812 -11.960938 1.5 -13.253906 1.5 -14.484375 C 1.5 -15.546875 1.617188 -16.738281 1.859375 -18.0625 C 2.109375 -19.394531 2.503906 -20.734375 3.046875 -22.078125 C 3.585938 -23.421875 4.3125 -24.65625 5.21875 -25.78125 C 6.132812 -26.90625 7.25 -27.816406 8.5625 -28.515625 C 9.882812 -29.222656 11.429688 -29.578125 13.203125 -29.578125 C 14.972656 -29.578125 16.515625 -29.222656 17.828125 -28.515625 C 19.140625 -27.816406 20.253906 -26.90625 21.171875 -25.78125 C 22.085938 -24.65625 22.816406 -23.421875 23.359375 -22.078125 C 23.898438 -20.734375 24.289062 -19.394531 24.53125 -18.0625 C 24.78125 -16.738281 24.90625 -15.546875 24.90625 -14.484375 C 24.90625 -13.253906 24.769531 -11.960938 24.5 -10.609375 C 24.226562 -9.253906 23.796875 -7.914062 23.203125 -6.59375 C 22.617188 -5.28125 21.867188 -4.085938 20.953125 -3.015625 C 20.046875 -1.953125 18.945312 -1.097656 17.65625 -0.453125 C 16.375 0.191406 14.890625 0.515625 13.203125 0.515625 Z M 13.203125 0.515625 "/></g></g></g><g fill="#000000" fill-opacity="1"><g transform="translate(259.672319, 180.105927)"><g><path d="M 20.4375 0 L -0.640625 0 L 10.890625 -14.75 C 11.285156 -15.226562 11.710938 -15.753906 12.171875 -16.328125 C 12.628906 -16.898438 13.019531 -17.503906 13.34375 -18.140625 C 13.675781 -18.785156 13.84375 -19.4375 13.84375 -20.09375 C 13.84375 -21.15625 13.535156 -21.984375 12.921875 -22.578125 C 12.304688 -23.179688 11.515625 -23.484375 10.546875 -23.484375 C 9.484375 -23.484375 8.625 -23.140625 7.96875 -22.453125 C 7.3125 -21.765625 6.957031 -20.664062 6.90625 -19.15625 L 0.859375 -19.15625 C 0.910156 -21.039062 1.300781 -22.769531 2.03125 -24.34375 C 2.757812 -25.914062 3.832031 -27.179688 5.25 -28.140625 C 6.664062 -29.097656 8.414062 -29.578125 10.5 -29.578125 C 12.382812 -29.578125 14.039062 -29.179688 15.46875 -28.390625 C 16.894531 -27.609375 18 -26.503906 18.78125 -25.078125 C 19.570312 -23.648438 19.96875 -21.988281 19.96875 -20.09375 C 19.96875 -18.644531 19.703125 -17.328125 19.171875 -16.140625 C 18.648438 -14.953125 17.988281 -13.84375 17.1875 -12.8125 C 16.382812 -11.78125 15.554688 -10.738281 14.703125 -9.6875 L 11.609375 -5.828125 L 20.4375 -5.828125 Z M 20.4375 0 "/></g></g></g><g fill="#000000" fill-opacity="1"><g transform="translate(288.043777, 180.105927)"><g><path d="M 11.484375 -23.40625 L 10.453125 -19.453125 C 13.054688 -19.710938 15.191406 -19.441406 16.859375 -18.640625 C 18.535156 -17.835938 19.785156 -16.664062 20.609375 -15.125 C 21.441406 -13.582031 21.859375 -11.8125 21.859375 -9.8125 C 21.859375 -7.664062 21.320312 -5.828125 20.25 -4.296875 C 19.175781 -2.773438 17.753906 -1.609375 15.984375 -0.796875 C 14.210938 0.015625 12.269531 0.421875 10.15625 0.421875 C 8.238281 0.421875 6.351562 -0.0507812 4.5 -1 C 2.644531 -1.957031 1.003906 -3.65625 -0.421875 -6.09375 L 4.546875 -9.515625 C 5.285156 -8.367188 5.984375 -7.507812 6.640625 -6.9375 C 7.296875 -6.375 7.921875 -6 8.515625 -5.8125 C 9.117188 -5.625 9.695312 -5.53125 10.25 -5.53125 C 11.132812 -5.53125 11.972656 -5.675781 12.765625 -5.96875 C 13.566406 -6.269531 14.21875 -6.734375 14.71875 -7.359375 C 15.21875 -7.992188 15.46875 -8.828125 15.46875 -9.859375 C 15.46875 -11.453125 14.9375 -12.609375 13.875 -13.328125 C 12.820312 -14.046875 11.613281 -14.40625 10.25 -14.40625 C 9.90625 -14.40625 9.484375 -14.359375 8.984375 -14.265625 C 8.484375 -14.179688 7.703125 -14 6.640625 -13.71875 L 3.390625 -16.15625 L 6.984375 -29.140625 L 20.703125 -29.140625 L 20.703125 -23.40625 Z M 11.484375 -23.40625 "/></g></g></g><path fill="#000000" d="M 298.71875 90.597656 C 297.875 91.019531 297.402344 91.773438 297.121094 93.183594 C 296.839844 94.359375 296.417969 95.160156 295.992188 95.160156 C 295.617188 95.160156 293.40625 94.6875 291.058594 94.171875 C 287.15625 93.230469 285.886719 93.183594 276.4375 93.417969 C 267.175781 93.652344 265.667969 93.796875 262.519531 94.78125 L 258.992188 95.957031 L 258.710938 101.128906 L 254.339844 102.492188 L 249.921875 103.855469 L 249.636719 106.628906 C 249.496094 108.132812 249.355469 112.976562 249.355469 117.300781 L 249.355469 125.246094 L 237.132812 125.246094 L 237.132812 123.367188 C 237.132812 121.769531 236.945312 121.390625 235.675781 120.734375 C 234.125 119.933594 231.867188 120.121094 230.691406 121.0625 C 230.363281 121.34375 230.082031 122.191406 230.082031 122.945312 C 230.082031 124.683594 229.421875 124.683594 226.695312 122.945312 L 224.53125 121.582031 L 224.34375 118.242188 C 224.203125 115.421875 224.015625 114.761719 223.121094 114.152344 C 222.511719 113.730469 221.523438 112.601562 220.867188 111.566406 C 219.597656 109.542969 218.5625 109.214844 218.089844 110.671875 C 217.949219 111.191406 217.621094 111.613281 217.433594 111.613281 C 217.199219 111.613281 216.257812 112.601562 215.316406 113.824219 C 213.8125 115.75 213.625 116.316406 213.625 118.710938 C 213.625 121.34375 213.625 121.390625 211.746094 122.378906 C 210.097656 123.226562 209.019531 123.367188 203.753906 123.367188 C 197.6875 123.367188 197.640625 123.367188 197.359375 122.238281 C 197.21875 121.582031 196.558594 120.734375 195.902344 120.3125 C 194.773438 119.558594 194.679688 119.558594 193.597656 120.59375 C 192.984375 121.15625 192.46875 122.003906 192.46875 122.472656 C 192.46875 124.070312 191.527344 123.882812 189.320312 122.003906 C 186.96875 119.886719 187.109375 119.886719 184.242188 122.472656 C 183.113281 123.554688 182.3125 123.789062 180.058594 123.929688 C 177.285156 124.070312 177.238281 124.070312 176.0625 126.28125 C 174.746094 128.632812 173.289062 130.417969 172.628906 130.417969 C 172.441406 130.417969 172.253906 127.832031 172.253906 124.636719 C 172.253906 119.464844 172.066406 118.148438 170.277344 111.003906 C 167.738281 100.847656 167.269531 100.660156 165.484375 109.121094 C 164.777344 112.460938 163.882812 115.609375 163.507812 116.171875 C 163.039062 116.925781 162.851562 118.855469 162.804688 122.753906 C 162.757812 130.417969 162.664062 130.558594 159.699219 127.878906 C 158.382812 126.703125 156.878906 125.71875 156.363281 125.71875 C 155.84375 125.71875 154.339844 126.5625 153.023438 127.597656 C 150.722656 129.433594 150.53125 129.480469 147.148438 129.480469 C 143.949219 129.480469 143.621094 129.574219 142.917969 130.652344 C 142.164062 131.78125 141.976562 131.828125 136.992188 131.828125 C 132.101562 131.828125 131.820312 131.78125 131.820312 130.890625 C 131.820312 129.242188 130.363281 122.753906 129.707031 121.535156 L 129.140625 120.40625 L 128.390625 121.535156 C 127.542969 122.851562 126.835938 125.765625 126.414062 129.480469 L 126.132812 132.066406 L 120.066406 131.921875 C 114.707031 131.78125 113.769531 131.875 111.605469 132.816406 C 109.160156 133.851562 109.160156 133.898438 108.550781 137.566406 C 108.359375 138.789062 108.03125 139.351562 107.515625 139.351562 C 107.09375 139.351562 106.339844 139.679688 105.871094 140.152344 C 104.882812 140.996094 103.046875 141.042969 99.757812 140.292969 L 97.5 139.726562 L 97.5 136.484375 C 97.5 133.804688 97.359375 133.191406 96.609375 132.769531 C 95.292969 132.113281 93.929688 132.207031 93.082031 133.003906 C 92.519531 133.617188 92 133.617188 89.933594 133.191406 C 88.050781 132.769531 86.875 132.816406 84.949219 133.238281 C 82.550781 133.851562 82.410156 133.804688 81.703125 132.816406 C 81.1875 132.113281 80.574219 131.828125 79.730469 131.921875 L 78.460938 132.066406 L 78.460938 137.660156 C 78.460938 141.984375 78.601562 143.300781 79.117188 143.488281 C 79.636719 143.675781 79.683594 142.785156 79.402344 138.695312 C 79.210938 135.964844 79.210938 133.710938 79.355469 133.710938 C 79.542969 133.710938 80.199219 134.039062 80.8125 134.460938 C 81.75 135.074219 82.363281 135.121094 84.429688 134.695312 C 85.792969 134.414062 88.945312 134.273438 91.390625 134.367188 L 95.855469 134.554688 L 96.089844 137.753906 L 96.324219 140.902344 L 98.160156 141.5625 C 99.382812 141.984375 101.074219 142.078125 103.097656 141.890625 C 108.21875 141.46875 109.675781 140.386719 109.726562 137.09375 C 109.726562 135.355469 109.914062 134.980469 111.230469 134.179688 C 112.640625 133.332031 113.484375 133.238281 119.363281 133.332031 C 122.984375 133.382812 126.179688 133.285156 126.460938 133.097656 C 126.742188 132.957031 127.121094 131.171875 127.308594 129.148438 C 127.636719 124.917969 128.390625 121.816406 129 122.191406 C 129.613281 122.566406 130.410156 126.894531 130.410156 129.996094 L 130.410156 132.863281 L 136.476562 132.722656 C 142.023438 132.535156 142.679688 132.441406 143.667969 131.453125 C 144.609375 130.605469 145.3125 130.417969 148.089844 130.417969 C 151.050781 130.417969 151.519531 130.277344 152.554688 129.195312 C 153.589844 128.066406 155.796875 126.65625 156.503906 126.65625 C 156.644531 126.65625 157.914062 127.738281 159.324219 129.054688 C 163.507812 133.003906 163.980469 132.347656 164.636719 121.25 C 164.964844 115.984375 165.25 114.199219 166.09375 112.320312 L 167.128906 109.96875 L 168.257812 111.378906 C 170.042969 113.539062 170.84375 118.054688 170.511719 124.023438 C 170.230469 129.855469 170.703125 131.359375 172.675781 131.359375 C 173.664062 131.359375 174.132812 130.9375 175.027344 129.242188 C 176.671875 126.140625 178.363281 125.058594 180.949219 125.433594 C 182.925781 125.765625 183.160156 125.671875 185.089844 123.882812 C 186.214844 122.804688 187.390625 121.957031 187.625 121.957031 C 187.863281 121.957031 188.660156 122.613281 189.414062 123.367188 C 191.292969 125.339844 192.84375 125.152344 193.597656 122.898438 C 193.878906 122.003906 194.351562 121.25 194.585938 121.25 C 194.867188 121.25 195.570312 122.097656 196.230469 123.085938 L 197.40625 124.917969 L 204.222656 124.636719 C 209.535156 124.402344 211.132812 124.167969 211.558594 123.601562 C 211.839844 123.226562 212.496094 122.898438 213.015625 122.898438 C 214.046875 122.898438 214.566406 121.15625 214.566406 117.539062 C 214.566406 116.078125 214.894531 115.375 216.398438 113.917969 C 217.386719 112.882812 218.46875 112.082031 218.75 112.082031 C 219.03125 112.082031 219.925781 112.695312 220.722656 113.398438 C 222.039062 114.574219 222.230469 115.09375 222.511719 118.054688 C 222.886719 121.957031 223.355469 122.613281 227.351562 125.058594 C 230.269531 126.847656 231.253906 126.800781 230.878906 124.871094 C 230.550781 123.085938 231.300781 121.535156 232.664062 121.203125 C 234.5 120.734375 236.003906 122.003906 236.378906 124.261719 C 236.804688 126.988281 237.460938 127.222656 244.230469 126.65625 C 247.382812 126.375 250.109375 126.046875 250.25 125.90625 C 250.390625 125.765625 250.53125 121.203125 250.53125 115.75 C 250.578125 104.183594 250.296875 104.796875 256.21875 103.058594 C 259.652344 102.070312 259.699219 102.070312 259.699219 100.472656 C 259.699219 98.308594 261.25 96.945312 265.105469 95.675781 C 267.832031 94.78125 269.242188 94.6875 277.707031 94.6875 C 286.261719 94.6875 287.625 94.828125 291.667969 95.863281 C 294.113281 96.523438 296.699219 97.039062 297.449219 97.039062 C 298.625 97.039062 298.71875 96.898438 298.71875 95.160156 C 298.71875 93.558594 298.910156 93.183594 299.894531 92.714844 C 301.351562 92.054688 302.152344 92.667969 302.292969 94.59375 C 302.339844 95.300781 302.386719 96.144531 302.433594 96.476562 C 302.433594 96.804688 303.421875 97.507812 304.597656 98.027344 C 305.726562 98.542969 306.808594 99.15625 306.996094 99.4375 C 307.183594 99.71875 307.277344 108.652344 307.230469 119.230469 L 307.136719 138.503906 L 308.640625 141.136719 C 310.519531 144.429688 312.355469 147.015625 312.683594 146.6875 C 312.824219 146.542969 312.027344 144.804688 310.945312 142.832031 C 308.546875 138.457031 308.21875 135.777344 308.640625 125.246094 C 308.828125 121.25 309.015625 113.589844 309.015625 108.226562 L 309.0625 98.496094 L 307.183594 97.980469 C 305.019531 97.414062 303.890625 96.003906 303.890625 93.890625 C 303.890625 92.433594 302.574219 90.457031 301.589844 90.457031 C 301.351562 90.457031 300.882812 90.363281 300.507812 90.222656 C 300.179688 90.082031 299.378906 90.269531 298.71875 90.597656 Z M 298.71875 90.597656 " fill-opacity="1" fill-rule="nonzero"/></svg>